<svg width="18" height="18" viewBox="0 0 18 18" fill="none" xmlns="http://www.w3.org/2000/svg">
<g clip-path="url(#clip0_10430_53842)">
<g clip-path="url(#clip1_10430_53842)">
<rect width="18" height="18" rx="9" fill="#FF3333"/>
<path d="M9.56836 4.46875L9.49219 10.5918H8.51367L8.43164 4.46875H9.56836ZM8.39648 12.4551C8.39648 12.2793 8.44922 12.1309 8.55469 12.0098C8.66406 11.8887 8.82422 11.8281 9.03516 11.8281C9.24219 11.8281 9.40039 11.8887 9.50977 12.0098C9.62305 12.1309 9.67969 12.2793 9.67969 12.4551C9.67969 12.623 9.62305 12.7676 9.50977 12.8887C9.40039 13.0098 9.24219 13.0703 9.03516 13.0703C8.82422 13.0703 8.66406 13.0098 8.55469 12.8887C8.44922 12.7676 8.39648 12.623 8.39648 12.4551Z" fill="white"/>
</g>
</g>
<defs>
<clipPath id="clip0_10430_53842">
<rect width="18" height="18" fill="white"/>
</clipPath>
<clipPath id="clip1_10430_53842">
<rect width="18" height="18" fill="white"/>
</clipPath>
</defs>
</svg>
