<svg width="24" height="24" viewBox="0 0 24 24" fill="none" xmlns="http://www.w3.org/2000/svg">
<g id="emoji_u1f609">
<g id="gold">
<path id="face" d="M11.9258 22.275C6.69453 22.275 1.05078 18.9938 1.05078 11.7938C1.05078 4.59375 6.69453 1.3125 11.9258 1.3125C14.832 1.3125 17.5133 2.26875 19.5008 4.0125C21.657 5.925 22.8008 8.625 22.8008 11.7938C22.8008 14.9625 21.657 17.6438 19.5008 19.5563C17.5133 21.3 14.8133 22.275 11.9258 22.275Z" fill="url(#paint0_radial_10455_39218)"/>
<path id="Vector" d="M20.9037 5.56299C21.9031 7.17549 22.4244 9.09549 22.4244 11.2311C22.4244 14.3999 21.2806 17.0811 19.1244 18.9936C17.1369 20.7374 14.4369 21.7124 11.5494 21.7124C8.16313 21.7124 4.61188 20.3342 2.51562 17.4111C4.53312 20.7224 8.32812 22.2749 11.9244 22.2749C14.8119 22.2749 17.5119 21.2999 19.4994 19.5561C21.6556 17.6436 22.7994 14.9624 22.7994 11.7936C22.7994 9.40486 22.1488 7.28236 20.9037 5.56299Z" fill="#EB8F00"/>
</g>
<g id="facial_expressions">
<g id="winking-face">
<path id="mouth" d="M12.0464 17.8949C9.65768 17.8949 7.95518 16.6555 7.4433 15.8755C7.25018 15.6262 7.20892 15.2887 7.3383 14.9999C7.43767 14.818 7.6308 14.7055 7.83893 14.7074C7.9158 14.7074 7.99268 14.7205 8.0658 14.7449C9.35955 15.1349 10.7039 15.328 12.0558 15.3205C13.4002 15.328 14.7389 15.133 16.0271 14.7449C16.1002 14.7205 16.1771 14.7093 16.2539 14.7074C16.4621 14.7055 16.6552 14.818 16.7546 14.9999C16.8839 15.2887 16.8427 15.6262 16.6496 15.8755C16.1377 16.6555 14.437 17.8949 12.0464 17.8949Z" fill="#422B0D"/>
<g id="eyes">
<g id="peepers">
<path id="Vector_2" d="M18.2832 11.6249L18.2457 11.5724C18.2119 11.5237 18.1763 11.4768 18.1369 11.4318C18.0019 11.2799 17.8501 11.1431 17.6832 11.0268C17.4582 10.8693 17.2144 10.7399 16.9576 10.6424C16.8169 10.5881 16.6726 10.5412 16.5263 10.5037C16.4532 10.4849 16.3726 10.4681 16.2901 10.4512L16.1776 10.4306L16.2882 10.3724L16.6163 10.1999C16.8282 10.0912 17.0288 9.99745 17.1976 9.92057C17.3663 9.8437 17.5051 9.78932 17.5988 9.7537L17.7413 9.70307L17.7826 9.6862C18.0469 9.57745 18.1707 9.2737 18.0619 9.00932C17.9869 8.82932 17.8182 8.70745 17.6251 8.69245C17.5482 8.6887 17.4694 8.6887 17.3926 8.69245C17.2032 8.70932 17.0138 8.74307 16.8301 8.78995C16.5788 8.8537 16.3332 8.93432 16.0932 9.03182C15.9657 9.08807 15.8307 9.14057 15.7013 9.20807C15.5719 9.27557 15.4313 9.34682 15.3151 9.4087C15.1988 9.47057 15.0582 9.56245 14.9401 9.64307C14.8219 9.7237 14.7019 9.80807 14.5894 9.89057C14.3813 10.0443 14.1844 10.2131 14.0026 10.3968C13.8657 10.5318 13.7419 10.6781 13.6276 10.8337C13.5938 10.8787 13.5619 10.9274 13.5338 10.9762C13.5188 11.0062 13.5094 11.0212 13.5094 11.0212C13.4401 11.1899 13.4344 11.3774 13.4944 11.5499C13.5994 11.8143 13.8994 11.9437 14.1638 11.8387C14.1657 11.8387 14.1676 11.8368 14.1694 11.8368L14.2144 11.8199L14.2501 11.8124L14.2951 11.8012C14.3269 11.8012 14.3851 11.7787 14.4451 11.7656C14.5051 11.7524 14.5782 11.7393 14.6569 11.7262C14.8426 11.6999 15.0319 11.6849 15.2194 11.6849C15.4407 11.6849 15.6638 11.6999 15.8832 11.7318C15.9226 11.7318 16.0219 11.7506 16.0707 11.7599C16.1194 11.7693 16.1719 11.7768 16.2282 11.7899C16.3369 11.8162 16.4438 11.8387 16.5451 11.8687C16.7251 11.9193 16.9013 11.9812 17.0738 12.0562C17.1863 12.1087 17.2969 12.1668 17.4038 12.2324C17.4788 12.2774 17.5163 12.3056 17.5163 12.3056L17.5688 12.3449C17.7938 12.5156 18.1163 12.4706 18.2851 12.2437C18.4238 12.0599 18.4219 11.8068 18.2832 11.6249Z" fill="#422B0D"/>
<path id="Vector_3" d="M8.375 8.80121C7.58938 8.80121 6.875 9.46496 6.875 10.5675C6.875 11.67 7.58938 12.3318 8.375 12.3318C9.16062 12.3318 9.875 11.6681 9.875 10.5675C9.875 9.46683 9.16062 8.80121 8.375 8.80121Z" fill="#422B0D"/>
</g>
<path id="eyebrows" d="M5.59359 8.39994C5.43047 8.40182 5.27859 8.32307 5.18297 8.19182C5.09297 8.05682 5.07609 7.88432 5.13984 7.73432C5.52234 6.77432 6.26109 5.99807 7.20234 5.57057C7.54922 5.40932 7.91859 5.30057 8.29922 5.24994C8.32359 5.24807 8.34797 5.24807 8.37234 5.24994C8.60859 5.24057 8.81297 5.41119 8.84672 5.64557C8.88047 5.89494 8.73234 6.13119 8.49234 6.20807L8.42297 6.07682L8.46984 6.21557C7.46297 6.56807 6.60422 7.25057 6.03234 8.15057C5.94234 8.30432 5.77734 8.39807 5.59922 8.39807L5.59359 8.39994Z" fill="#422B0D"/>
</g>
<g id="peepers-2">
<path id="Vector_4" d="M8.29976 9.5379C8.03351 9.4104 7.71288 9.5229 7.58351 9.78915C7.48413 9.99727 7.52913 10.2466 7.69601 10.4079C7.96226 10.5354 8.28288 10.4229 8.41226 10.1566C8.51163 9.94852 8.46663 9.69915 8.29976 9.5379Z" fill="#896024"/>
</g>
</g>
</g>
</g>
<defs>
<radialGradient id="paint0_radial_10455_39218" cx="0" cy="0" r="1" gradientUnits="userSpaceOnUse" gradientTransform="translate(11.9258 11.7938) scale(10.6799 10.6799)">
<stop offset="0.5" stop-color="#FDE030"/>
<stop offset="0.92" stop-color="#F7C02B"/>
<stop offset="1" stop-color="#F4A223"/>
</radialGradient>
</defs>
</svg>
