<svg width="24" height="24" viewBox="0 0 24 24" fill="none" xmlns="http://www.w3.org/2000/svg">
<g id="emoji_u1f3c6" clip-path="url(#clip0_10455_39232)">
<path id="Vector" d="M18.2094 11.1279C18.6256 10.7848 21.0294 9.29791 22.3456 8.04541C23.3731 7.06667 23.7706 4.51104 22.19 3.26792C20.135 1.65354 18.1625 3.34854 18.1625 3.34854C18.1625 3.34854 17.99 2.39042 16.79 1.82792C15.2787 1.11917 13.3644 0.854791 11.6037 0.877291C9.89749 0.897916 8.32624 1.10417 6.93124 1.78854C5.68249 2.40167 5.60749 3.27542 5.60749 3.27542C5.60749 3.27542 3.96874 1.70979 1.96062 2.98104C-0.0456313 4.25417 0.529994 6.80416 1.49562 7.87479C2.75374 9.26979 4.26499 9.98042 4.95124 10.4942C5.63562 11.0079 6.29187 11.4973 6.29187 11.9379C6.29187 12.3785 6.09687 12.476 6.02187 12.4517C5.94874 12.4273 5.81937 11.9979 5.48374 12.1817C5.02624 12.4348 5.16499 13.4548 6.11937 13.5523C7.04374 13.6479 7.21999 12.671 7.21999 12.671L7.36624 11.7167L8.88312 12.7685L10.5462 14.1392L10.4975 15.3129C10.4975 15.3129 10.4244 16.2185 9.98374 17.0023C9.54312 17.786 8.83437 18.5679 8.83437 18.5679L8.81187 19.2767L14.9787 19.1304L14.7837 18.446C14.7837 18.446 13.9887 17.5723 13.5106 16.6348C13.1694 15.9635 13.115 15.2867 13.115 15.2867L13.1 13.6029L16.3006 11.6417C16.3006 11.6417 16.6437 11.9117 16.595 12.0092C16.5462 12.1067 16.535 13.106 17.3037 13.4773C18.0631 13.8448 18.6744 13.3798 18.6012 12.7423C18.5281 12.1067 18.1362 12.326 18.0144 12.4235C17.8925 12.521 17.6225 12.5454 17.5494 12.1779C17.4744 11.8142 17.7931 11.471 18.2094 11.1279ZM2.45374 7.66666L1.72062 5.43542L2.60749 4.27479L3.60124 3.98417C3.60124 3.98417 4.87062 4.93104 4.91562 5.00792C4.96062 5.08479 5.72562 6.65792 5.72562 6.65792L6.73437 10.3104L2.45374 7.66666ZM16.865 10.601C16.88 10.5242 17.8119 6.68791 17.8119 6.68791C17.8119 6.64291 18.4681 6.33729 18.4681 6.27542C18.4681 6.21354 19.6606 4.27292 19.6606 4.27292L21.6481 4.34979L22.0606 6.32042L21.0669 7.95541C21.0687 7.95729 16.85 10.676 16.865 10.601Z" fill="#FEC417"/>
<path id="Vector_2" d="M22.4837 5.74488C22.3375 3.99738 20.6087 3.57926 19.8981 3.83238C19.1875 4.08551 18.7262 4.55988 18.5687 5.23488C18.4412 5.78051 18.3137 6.14426 18.1675 6.20051C18.0062 6.26051 17.8581 6.23613 17.8581 6.23613C17.8581 6.23613 17.8319 5.05488 17.8394 4.57863C17.8581 3.59613 18.1581 3.34488 18.1581 3.34488C18.1581 3.34488 18.0944 3.01301 17.9669 2.82926C17.8394 2.64738 17.6031 2.41113 17.6031 2.41113C17.6031 2.41113 17.6575 2.88363 17.4212 2.99426C17.185 3.10488 16.93 2.93988 16.93 2.93988L17.1662 3.92238C17.1662 3.92238 16.7837 8.81988 16.7481 8.92863C16.7125 9.03738 15.2744 11.5311 15.2744 11.5311C15.2744 11.5311 14.4362 12.3149 14.0369 12.4968C13.6356 12.6786 13.2906 13.153 11.7437 13.1699C10.1969 13.1886 8.86748 11.968 8.86748 11.968L7.5381 10.693L6.5556 7.79801L6.40935 4.84863L6.47123 3.77613L6.51435 3.32801L6.44498 3.10113C6.44498 3.10113 6.31748 3.22863 6.08123 3.17426C5.84498 3.11988 5.7531 2.81051 5.7531 2.81051C5.7531 2.81051 5.66123 2.95676 5.64435 3.02988C5.6256 3.10301 5.60685 3.27176 5.60685 3.27176C5.60685 3.27176 5.86185 3.53988 5.91623 3.92238C5.9706 4.30488 5.89748 5.88926 5.6256 5.85176C5.35185 5.81613 5.44185 4.48676 4.40498 3.97676C3.50685 3.53426 2.16623 3.66738 1.61873 4.77738C1.0731 5.88738 1.47248 7.19801 3.18435 8.41863C4.89623 9.63926 6.71873 10.6649 7.00748 11.6436C7.35248 12.808 6.5706 13.4999 6.5706 13.4999C6.5706 13.4999 7.13873 13.4211 7.4181 12.8118C7.5081 12.6149 7.54185 12.328 7.55498 12.1574C8.20185 13.0011 9.06248 13.7155 10.2025 14.0605C10.6337 14.2086 11.1194 14.2836 11.7944 14.2836C11.8919 14.2836 11.9875 14.2799 12.0831 14.2761C12.8725 14.248 13.5475 14.0999 14.2019 13.7755C15.085 13.3668 15.7694 12.7424 16.2981 12.0336C16.2831 12.2024 16.3862 12.6224 16.5831 12.9543C16.9281 13.5374 17.5112 13.573 17.5112 13.573C17.5112 13.573 16.7106 13.1005 16.8737 11.9718C17.0369 10.843 17.7831 10.4418 18.9119 9.71426C20.0444 8.98488 22.6281 7.49238 22.4837 5.74488ZM3.98685 8.22176C3.47873 7.86363 2.5881 7.38551 2.2206 6.65613C1.73123 5.68301 2.12873 4.50738 3.05873 4.36301C4.98998 4.05926 5.0256 6.45738 5.1531 6.74801C5.2806 7.03863 5.64435 7.05738 5.64435 7.05738C5.64435 7.05738 5.65748 7.21863 5.70998 7.52988C5.71185 7.53926 5.71373 7.54676 5.71373 7.55613C5.7156 7.56551 5.71748 7.57488 5.71935 7.58426C5.75498 7.79613 5.8056 8.06051 5.87685 8.36238C5.87873 8.36988 5.8806 8.37738 5.88248 8.38488C5.92185 8.55551 5.9631 8.71676 6.00623 8.86488C6.09248 9.17613 6.19748 9.51176 6.32685 9.85676C6.13935 9.72926 5.06498 8.98488 3.98685 8.22176ZM21.4825 6.87363C21.0794 7.52613 20.2637 8.01176 19.6619 8.42051C18.8856 8.94738 17.7306 9.73863 17.4044 9.95988C17.4794 9.76113 17.545 9.56426 17.605 9.37113C17.7025 9.11613 17.8056 8.80488 17.8769 8.46926C18.0644 7.58801 18.0962 6.81738 18.0962 6.81738C18.0962 6.81738 18.4787 6.92613 18.715 6.67113C18.9512 6.41613 19.0394 5.62488 19.2606 5.25176C19.6056 4.66863 20.2975 4.06863 21.3362 4.79613C21.9362 5.21801 21.9587 6.10113 21.4825 6.87363Z" fill="#FFA828"/>
<path id="Vector_3" d="M11.3483 14.8706L12.4077 14.8575C12.4077 14.8575 12.4358 16.0144 12.6027 16.8769C12.7696 17.7412 12.9927 18.7012 12.9927 18.7012C12.9927 18.7012 10.8346 19.425 10.8477 18.645C10.8608 17.865 11.1815 16.3462 11.1815 16.3462C11.1815 16.3462 11.3765 14.5369 11.3483 14.8706Z" fill="#FFA828"/>
<path id="Vector_4" d="M9.57047 2.8482C9.57047 2.8482 10.7498 2.71507 11.8467 2.73195C12.9436 2.74882 14.0723 2.96445 14.0723 2.96445C14.0723 2.96445 14.0067 6.6357 13.8061 8.69632C13.6073 10.7569 12.8273 12.3001 12.6192 12.7369C12.4186 13.1607 12.2723 13.3876 12.2723 13.3876L11.2148 13.2638L9.38672 9.59257L9.57047 2.8482Z" fill="#FFA828"/>
<path id="Vector_5" d="M8.15848 3.39738C8.15848 3.39738 8.49036 3.23051 8.97223 3.04863C9.40911 2.88363 9.80286 2.83301 9.80286 2.83301C9.80286 2.83301 9.81411 5.26676 9.85348 7.00301C9.88723 8.48238 10.4347 10.9068 10.701 11.5555C10.9672 12.2043 11.4472 13.1943 11.4472 13.1943C11.4472 13.1943 10.4816 13.0555 9.88723 12.3018C9.57411 11.9043 8.10973 8.82926 8.05911 6.80238C8.00848 4.77551 8.20723 3.34676 8.15848 3.39738Z" fill="#FFEFAB"/>
<path id="Vector_6" d="M7.61019 3.67859C7.57644 3.77797 7.31207 5.87234 7.72644 7.81484C8.14082 9.75734 8.75394 11.0867 9.15894 11.6136C9.51894 12.0805 9.75332 12.3017 9.88644 12.3017C10.0196 12.3017 9.33894 10.6911 9.02207 9.42734C8.70707 8.16547 8.54019 6.65234 8.50644 5.90609C8.47269 5.15797 8.44081 3.23047 8.44081 3.23047C8.44081 3.23047 8.07519 3.39734 7.99269 3.44609C7.91019 3.49672 7.61019 3.67859 7.61019 3.67859Z" fill="#FFFCFD"/>
<path id="Vector_7" d="M10 18.5644C10 18.5644 10.7144 17.4019 10.8644 16.5206C11.0144 15.6394 11.0969 14.8594 11.0969 14.8594L11.5394 14.8781C11.5394 14.8781 11.4962 16.155 11.4456 17.0194C11.395 17.8837 11.2469 18.7313 11.2469 18.7313L10 18.5644Z" fill="#FFEFAB"/>
<path id="Vector_8" d="M10.5507 14.1394C10.5507 14.1394 10.8826 13.815 11.7957 13.815C12.7088 13.815 13.1007 14.1656 13.1007 14.1656L13.1251 15.2925C13.1251 15.2925 12.5176 15.1031 11.7788 15.0938C11.1638 15.0863 10.502 15.315 10.502 15.315L10.5507 14.1394Z" fill="#D1701C"/>
<path id="Vector_9" d="M6.56175 2.94749C6.7155 2.80499 8.18925 1.69874 11.6786 1.66874C15.4324 1.63499 16.8405 2.72249 16.9286 2.78249C17.028 2.84811 17.1443 3.14811 17.0955 3.28124C17.0449 3.41436 16.9455 3.46311 16.6643 3.34686C16.3811 3.23061 14.9861 2.21249 11.6299 2.31749C8.40675 2.41686 7.03988 3.39749 6.8955 3.47999C6.77925 3.54561 6.56363 3.56249 6.46425 3.42936C6.363 3.29811 6.46238 3.04124 6.56175 2.94749Z" fill="#D1701C"/>
<path id="Vector_10" d="M17.0957 3.72933C16.6645 3.76308 16.9626 7.23558 16.0495 9.41058C15.0707 11.7375 13.822 12.4012 13.8726 12.5343C13.9232 12.6675 15.1457 12.2981 15.9163 11.205C16.6307 10.1925 17.062 9.29433 17.2626 8.09808C17.4595 6.90183 17.5757 3.69183 17.0957 3.72933Z" fill="#D1701C"/>
<path id="Vector_11" d="M6.47117 4.12697C6.36242 4.12134 6.47304 5.85384 6.29679 6.61509C6.22929 6.90759 6.06429 6.96759 6.04742 7.03322C6.03054 7.09884 6.40929 9.32822 7.04492 10.307C7.65992 11.2538 8.87304 12.4332 9.07179 12.2345C9.27054 12.0357 8.19054 11.3701 7.46117 9.92447C7.04117 9.09572 6.61367 7.84697 6.59679 6.41822C6.58554 5.47322 6.70367 4.14009 6.47117 4.12697Z" fill="#D1701C"/>
<path id="Vector_12" d="M16.2684 21.1331L16.2666 18.4537H7.66594C7.69219 18.4537 7.67156 20.6325 7.66781 21.1425H6.44531V23.0831H17.3672C17.3672 23.0831 17.3672 21.1744 17.3672 21.1425L16.2684 21.1331Z" fill="#865C50"/>
<path id="Vector_13" d="M10.4236 19.862C10.2117 19.8526 9.96797 19.8957 9.95859 20.1582C9.94922 20.4207 9.94922 21.1801 9.94922 21.3245C9.94922 21.4689 10.0673 21.5945 10.3636 21.6039C10.6598 21.6132 13.4405 21.6039 13.6355 21.6039C13.8305 21.6039 13.9317 21.4351 13.9392 21.2664C13.9486 21.0976 13.9298 20.387 13.9298 20.1939C13.9298 19.8732 13.643 19.8732 13.448 19.8732C13.238 19.8695 10.4236 19.862 10.4236 19.862Z" fill="#FCC219"/>
</g>
<defs>
<clipPath id="clip0_10455_39232">
<rect width="24" height="24" fill="white"/>
</clipPath>
</defs>
</svg>
