<svg xmlns="http://www.w3.org/2000/svg" width="12" height="12" viewBox="0 0 12 12" fill="none">
<circle cx="6" cy="6" r="6" fill="#8D96B5"/>
<path d="M6.7604 3.81814C6.81859 3.41084 6.62666 2.98249 6.22637 2.88737C6.14825 2.86881 6.0709 2.85718 5.99972 2.85718C5.92854 2.85718 5.8512 2.86881 5.77307 2.88737C5.37278 2.98249 5.18086 3.41084 5.23904 3.81814L5.42829 5.14289L5.6736 6.86005C5.69679 7.02234 5.83578 7.14289 5.99972 7.14289C6.16366 7.14289 6.30266 7.02234 6.32584 6.86005L6.7604 3.81814Z" fill="white"/>
<path d="M6.85686 8.57146C6.85686 9.04485 6.47311 9.42861 5.99972 9.42861C5.52633 9.42861 5.14258 9.04485 5.14258 8.57146C5.14258 8.09808 5.52633 7.71432 5.99972 7.71432C6.47311 7.71432 6.85686 8.09808 6.85686 8.57146Z" fill="white"/>
</svg>