<svg width="24" height="24" viewBox="0 0 24 24" fill="none" xmlns="http://www.w3.org/2000/svg">
<path d="M9.50929 4.23001L18.0693 8.51001C21.9093 10.43 21.9093 13.57 18.0693 15.49L9.50929 19.77C3.74929 22.65 1.39929 20.29 4.27929 14.54L5.14929 12.81C5.39929 12.3 5.39929 11.71 5.14929 11.2L4.27929 9.46001C1.39929 3.71001 3.75929 1.35001 9.50929 4.23001Z" fill="white"/>
<path d="M14.8395 12.75H9.43945C9.02945 12.75 8.68945 12.41 8.68945 12C8.68945 11.59 9.02945 11.25 9.43945 11.25H14.8395C15.2495 11.25 15.5895 11.59 15.5895 12C15.5895 12.41 15.2495 12.75 14.8395 12.75Z" fill="#3300FF"/>
</svg>
