<svg width="24" height="24" viewBox="0 0 24 24" fill="none" xmlns="http://www.w3.org/2000/svg">
<path fill-rule="evenodd" clip-rule="evenodd" d="M18.5 2.75C16.9812 2.75 15.75 3.98122 15.75 5.5C15.75 5.94352 15.8544 6.36049 16.0394 6.72966C16.4918 7.63271 17.4245 8.25 18.5 8.25C20.0188 8.25 21.25 7.01878 21.25 5.5C21.25 3.98122 20.0188 2.75 18.5 2.75ZM14.25 5.5C14.25 3.15279 16.1528 1.25 18.5 1.25C20.8472 1.25 22.75 3.15279 22.75 5.5C22.75 7.84721 20.8472 9.75 18.5 9.75C17.105 9.75 15.868 9.07782 15.0936 8.04171L9.5779 10.7996C9.68995 11.1807 9.75 11.5838 9.75 12C9.75 12.4162 9.68995 12.8193 9.5779 13.2004L15.0936 15.9583C15.868 14.9222 17.105 14.25 18.5 14.25C20.8472 14.25 22.75 16.1528 22.75 18.5C22.75 20.8472 20.8472 22.75 18.5 22.75C16.1528 22.75 14.25 20.8472 14.25 18.5C14.25 18.0838 14.31 17.6807 14.4221 17.2996L8.90637 14.5417C8.13203 15.5778 6.89499 16.25 5.5 16.25C3.15279 16.25 1.25 14.3472 1.25 12C1.25 9.65279 3.15279 7.75 5.5 7.75C6.89499 7.75 8.13203 8.42218 8.90637 9.45829L14.4221 6.70042C14.31 6.31926 14.25 5.91624 14.25 5.5ZM5.5 9.25C3.98122 9.25 2.75 10.4812 2.75 12C2.75 13.5188 3.98122 14.75 5.5 14.75C6.57552 14.75 7.50822 14.1327 7.96062 13.2297C8.14556 12.8605 8.25 12.4435 8.25 12C8.25 11.5565 8.14556 11.1395 7.96062 10.7703C7.50822 9.86729 6.57552 9.25 5.5 9.25ZM18.5 15.75C17.4245 15.75 16.4918 16.3673 16.0394 17.2703C15.8544 17.6395 15.75 18.0565 15.75 18.5C15.75 20.0188 16.9812 21.25 18.5 21.25C20.0188 21.25 21.25 20.0188 21.25 18.5C21.25 16.9812 20.0188 15.75 18.5 15.75Z" fill="#8D96B5"/>
</svg>
