<svg width="24" height="24" viewBox="0 0 24 24" fill="none" xmlns="http://www.w3.org/2000/svg">
<path fill-rule="evenodd" clip-rule="evenodd" d="M1.1 12C1.1 6.00294 6.00294 1.1 12 1.1C17.9971 1.1 22.9 6.00294 22.9 12C22.9 17.9971 17.9971 22.9 12 22.9C6.00294 22.9 1.1 17.9971 1.1 12ZM12 2.9C6.99706 2.9 2.9 6.99706 2.9 12C2.9 17.0029 6.99706 21.1 12 21.1C17.0029 21.1 21.1 17.0029 21.1 12C21.1 6.99706 17.0029 2.9 12 2.9Z" fill="#00CC99"/>
<path fill-rule="evenodd" clip-rule="evenodd" d="M16.887 8.53417C17.2381 8.88595 17.2376 9.4558 16.8858 9.80696L11.2158 15.467C10.8643 15.8179 10.2949 15.8176 9.9436 15.4664L7.1136 12.6364C6.76213 12.2849 6.76213 11.7151 7.1136 11.3636C7.46508 11.0121 8.03492 11.0121 8.3864 11.3636L10.5806 13.5578L15.6142 8.53304C15.9659 8.18188 16.5358 8.18238 16.887 8.53417Z" fill="#00CC99"/>
</svg>
